<svg xmlns="http://www.w3.org/2000/svg" xmlns:xlink="http://www.w3.org/1999/xlink" width="184.11608028411865" height="60.55357360839844" style="width:184.11608028411865px;height:60.55357360839844px;font-family:Asana-Math, Asana;background:transparent;"><g><g><g><g><g><g><text x="2" y="23.107147216796875" style="white-space:pre;stroke:none;fill:rgb(0,0,0);fill-opacity:1;font-size:15px;font-family:Arial, Helvetica, sans-serif;font-weight:400;font-style:normal;dominant-baseline:text-before-edge;text-decoration:none solid rgb(0, 0, 0);">score = </text></g></g></g></g><g><g><g><g><g transform="matrix(1,0,0,1,57.94647216796875,24.28570556640625)"><path transform="matrix(0.017,0,0,-0.017,0,0)" d="M418 -3L418 27L366 30C311 33 301 44 301 96L301 700L60 598L67 548L217 614L217 96C217 44 206 33 152 30L96 27L96 -3C250 0 250 0 261 0C292 0 402 -3 418 -3Z" stroke="rgb(0,0,0)" stroke-opacity="1" stroke-width="8" fill="rgb(0,0,0)" fill-opacity="1"></path></g></g></g></g><g><g><g><g transform="matrix(1,0,0,1,57.4732666015625,50.0714111328125)"><path transform="matrix(0.017,0,0,-0.017,0,0)" d="M349 664L352 692L238 689C222 689 204 689 161 690L97 692L94 664L141 662C165 661 176 653 176 635L81 55C77 37 65 30 21 23L16 -3L57 -2C88 -1 150 0 170 0C170 0 467 -1 467 -1C467 -1 500 0 500 0C499 25 510 103 523 165L492 165L475 103C466 71 457 54 448 49C435 44 371 39 304 39C255 39 228 40 162 46C165 64 256 605 256 613C263 651 270 658 307 661Z" stroke="rgb(0,0,0)" stroke-opacity="1" stroke-width="8" fill="rgb(0,0,0)" fill-opacity="1"></path></g></g></g></g><line style="fill:none;stroke-width:1px;stroke:rgb(0, 0, 0);" x1="57.4732666015625" y1="32.5714111328125" x2="66.9107666015625" y2="32.5714111328125"></line></g><g><g><g><g><g transform="matrix(1,0,0,1,78.21429443359375,13.9)"><path transform="matrix(0.0119,0,0,-0.0119,0,0)" d="M251 722L239 733C187 707 151 698 79 691L75 670L123 670C147 670 157 663 157 648C157 645 157 640 154 622C143 567 70 182 55 132C42 82 36 52 36 31C36 6 47 -9 66 -9C92 -9 128 12 226 85L216 103L190 86C161 67 139 56 129 56C122 56 116 66 116 76C116 82 117 89 120 104Z" stroke="rgb(0,0,0)" stroke-opacity="1" stroke-width="8" fill="rgb(0,0,0)" fill-opacity="1"></path></g></g></g></g><g><g><g><g transform="matrix(1,0,0,1,68.607177734375,56.176763916015624)"><path transform="matrix(0.0119,0,0,-0.0119,0,0)" d="M251 722L239 733C187 707 151 698 79 691L75 670L123 670C147 670 157 663 157 648C157 645 157 640 154 622C143 567 70 182 55 132C42 82 36 52 36 31C36 6 47 -9 66 -9C92 -9 128 12 226 85L216 103L190 86C161 67 139 56 129 56C122 56 116 66 116 76C116 82 117 89 120 104ZM1035 8L1035 61L835 61C741 61 648 139 635 244L1018 244L1018 297L635 297C647 397 730 480 835 480L1035 480L1035 533L840 533C693 533 581 411 581 271C581 131 693 8 840 8ZM1687 664L1690 692L1576 689C1560 689 1542 689 1499 690L1435 692L1432 664L1479 662C1503 661 1514 653 1514 635L1419 55C1415 37 1403 30 1359 23L1354 -3L1395 -2C1426 -1 1488 0 1508 0C1508 0 1805 -1 1805 -1C1805 -1 1838 0 1838 0C1837 25 1848 103 1861 165L1830 165L1813 103C1804 71 1795 54 1786 49C1773 44 1709 39 1642 39C1593 39 1566 40 1500 46C1503 64 1594 605 1594 613C1601 651 1608 658 1645 661Z" stroke="rgb(0,0,0)" stroke-opacity="1" stroke-width="8" fill="rgb(0,0,0)" fill-opacity="1"></path></g></g></g></g><g><g transform="matrix(1,0,0,1,69.02679443359375,34.319643402099615)"><path transform="matrix(0.0255,0,0,-0.0255,0,0)" d="M788 13L772 -310L62 -310L420 133L66 620L754 620L768 346L732 346C718 428 694 486 662 522C626 559 572 578 498 578L246 578L524 194L214 -205L512 -205C592 -205 648 -190 680 -162C714 -132 734 -74 746 13Z" stroke="rgb(0,0,0)" stroke-opacity="1" stroke-width="8" fill="rgb(0,0,0)" fill-opacity="1"></path></g></g></g><g><g><g><g><g transform="matrix(1,0,0,1,97.7232666015625,24.28570556640625)"><path transform="matrix(0.017,0,0,-0.017,0,0)" d="M418 -3L418 27L366 30C311 33 301 44 301 96L301 700L60 598L67 548L217 614L217 96C217 44 206 33 152 30L96 27L96 -3C250 0 250 0 261 0C292 0 402 -3 418 -3Z" stroke="rgb(0,0,0)" stroke-opacity="1" stroke-width="8" fill="rgb(0,0,0)" fill-opacity="1"></path></g></g></g></g><g><g><g><g transform="matrix(1,0,0,1,95.3660888671875,50.0714111328125)"><path transform="matrix(0.017,0,0,-0.017,0,0)" d="M316 -3C388 -3 437 8 489 34C645 114 741 265 741 431C741 529 711 599 650 642C604 675 519 693 424 692L220 689L210 689C201 689 198 689 97 692L94 664L147 662C171 661 182 653 182 635C182 621 178 589 173 559L86 55C81 31 56 29 33 23L28 -3L121 0L176 0C211 0 282 -3 316 -3ZM384 655C566 655 649 579 649 415C649 225 549 41 329 41C285 41 236 46 168 56C168 68 169 75 172 93L268 650C291 650 349 655 384 655Z" stroke="rgb(0,0,0)" stroke-opacity="1" stroke-width="8" fill="rgb(0,0,0)" fill-opacity="1"></path></g></g></g></g><line style="fill:none;stroke-width:1px;stroke:rgb(0, 0, 0);" x1="95.3660888671875" y1="32.5714111328125" x2="108.5803747177124" y2="32.5714111328125"></line></g><g><g><g><g><g transform="matrix(1,0,0,1,121.20538330078125,13.9)"><path transform="matrix(0.0119,0,0,-0.0119,0,0)" d="M483 722L471 733C419 707 383 698 311 691L307 670L355 670C379 670 389 663 389 646C389 638 388 629 387 622L359 468C329 477 302 482 277 482C208 482 114 410 68 323C37 265 17 170 17 86C17 21 32 -11 61 -11C88 -11 125 6 159 33C213 77 246 116 313 217L290 126C279 82 274 50 274 24C274 3 283 -9 300 -9C317 -9 341 3 375 28L456 88L446 107L402 76C388 66 372 59 363 59C355 59 349 68 349 82C349 90 350 99 357 128ZM114 59C98 59 89 73 89 98C89 224 135 380 184 418C197 428 216 433 243 433C287 433 316 427 349 410L337 351C300 171 159 59 114 59Z" stroke="rgb(0,0,0)" stroke-opacity="1" stroke-width="8" fill="rgb(0,0,0)" fill-opacity="1"></path></g></g></g></g><g><g><g><g transform="matrix(1,0,0,1,110.27679443359375,56.176763916015624)"><path transform="matrix(0.0119,0,0,-0.0119,0,0)" d="M483 722L471 733C419 707 383 698 311 691L307 670L355 670C379 670 389 663 389 646C389 638 388 629 387 622L359 468C329 477 302 482 277 482C208 482 114 410 68 323C37 265 17 170 17 86C17 21 32 -11 61 -11C88 -11 125 6 159 33C213 77 246 116 313 217L290 126C279 82 274 50 274 24C274 3 283 -9 300 -9C317 -9 341 3 375 28L456 88L446 107L402 76C388 66 372 59 363 59C355 59 349 68 349 82C349 90 350 99 357 128ZM114 59C98 59 89 73 89 98C89 224 135 380 184 418C197 428 216 433 243 433C287 433 316 427 349 410L337 351C300 171 159 59 114 59ZM1257 8L1257 61L1057 61C963 61 870 139 857 244L1240 244L1240 297L857 297C869 397 952 480 1057 480L1257 480L1257 533L1062 533C915 533 803 411 803 271C803 131 915 8 1062 8ZM1876 -3C1948 -3 1997 8 2049 34C2205 114 2301 265 2301 431C2301 529 2271 599 2210 642C2164 675 2079 693 1984 692L1780 689L1770 689C1761 689 1758 689 1657 692L1654 664L1707 662C1731 661 1742 653 1742 635C1742 621 1738 589 1733 559L1646 55C1641 31 1616 29 1593 23L1588 -3L1681 0L1736 0C1771 0 1842 -3 1876 -3ZM1944 655C2126 655 2209 579 2209 415C2209 225 2109 41 1889 41C1845 41 1796 46 1728 56C1728 68 1729 75 1732 93L1828 650C1851 650 1909 655 1944 655Z" stroke="rgb(0,0,0)" stroke-opacity="1" stroke-width="8" fill="rgb(0,0,0)" fill-opacity="1"></path></g></g></g></g><g><g transform="matrix(1,0,0,1,113.33929443359375,34.319643402099615)"><path transform="matrix(0.0255,0,0,-0.0255,0,0)" d="M788 13L772 -310L62 -310L420 133L66 620L754 620L768 346L732 346C718 428 694 486 662 522C626 559 572 578 498 578L246 578L524 194L214 -205L512 -205C592 -205 648 -190 680 -162C714 -132 734 -74 746 13Z" stroke="rgb(0,0,0)" stroke-opacity="1" stroke-width="8" fill="rgb(0,0,0)" fill-opacity="1"></path></g></g></g><g><g transform="matrix(1,0,0,1,140.6160888671875,36.678558349609375)"><path transform="matrix(0.017,0,0,-0.017,0,0)" d="M345 437L329 437L350 549C366 635 394 673 440 673C470 673 497 658 512 634L522 638C527 654 537 685 545 705L550 720C534 727 503 733 480 733C469 733 453 730 445 726C421 715 339 654 316 630C294 608 282 578 271 521L256 442C215 422 195 414 170 405L165 383L246 383L237 327C207 132 170 -54 148 -123C130 -182 100 -213 64 -213C41 -213 30 -206 12 -184L-2 -188C-6 -211 -20 -259 -25 -268C-16 -273 -1 -276 10 -276C51 -276 105 -245 144 -198C215 -114 235 -18 319 383L423 383C427 402 434 425 440 439L436 446C407 439 408 437 345 437Z" stroke="rgb(0,0,0)" stroke-opacity="1" stroke-width="8" fill="rgb(0,0,0)" fill-opacity="1"></path></g></g><g><g transform="matrix(1,0,0,1,149.9732666015625,37.25)"><path transform="matrix(0.017,0,0,-0.017,0,0)" d="M146 266C146 526 243 632 301 700L282 726C225 675 60 542 60 266C60 159 85 58 133 -32C168 -99 200 -138 282 -215L301 -194C255 -137 146 -15 146 266Z" stroke="rgb(0,0,0)" stroke-opacity="1" stroke-width="8" fill="rgb(0,0,0)" fill-opacity="1"></path></g></g><g><g transform="matrix(1,0,0,1,155.62506103515625,36.678558349609375)"><path transform="matrix(0.017,0,0,-0.017,0,0)" d="M251 722L239 733C187 707 151 698 79 691L75 670L123 670C147 670 157 663 157 648C157 645 157 640 154 622C143 567 70 182 55 132C42 82 36 52 36 31C36 6 47 -9 66 -9C92 -9 128 12 226 85L216 103L190 86C161 67 139 56 129 56C122 56 116 66 116 76C116 82 117 89 120 104Z" stroke="rgb(0,0,0)" stroke-opacity="1" stroke-width="8" fill="rgb(0,0,0)" fill-opacity="1"></path></g></g><g><g transform="matrix(1,0,0,1,160.33929443359375,36.678558349609375)"><path transform="matrix(0.017,0,0,-0.017,0,0)" d="M204 123C177 114 159 108 106 93C99 17 74 -48 16 -144L30 -155L71 -136C152 -31 190 32 218 109Z" stroke="rgb(0,0,0)" stroke-opacity="1" stroke-width="8" fill="rgb(0,0,0)" fill-opacity="1"></path></g></g><g><g transform="matrix(1,0,0,1,167.9732666015625,36.678558349609375)"><path transform="matrix(0.017,0,0,-0.017,0,0)" d="M483 722L471 733C419 707 383 698 311 691L307 670L355 670C379 670 389 663 389 646C389 638 388 629 387 622L359 468C329 477 302 482 277 482C208 482 114 410 68 323C37 265 17 170 17 86C17 21 32 -11 61 -11C88 -11 125 6 159 33C213 77 246 116 313 217L290 126C279 82 274 50 274 24C274 3 283 -9 300 -9C317 -9 341 3 375 28L456 88L446 107L402 76C388 66 372 59 363 59C355 59 349 68 349 82C349 90 350 99 357 128ZM114 59C98 59 89 73 89 98C89 224 135 380 184 418C197 428 216 433 243 433C287 433 316 427 349 410L337 351C300 171 159 59 114 59Z" stroke="rgb(0,0,0)" stroke-opacity="1" stroke-width="8" fill="rgb(0,0,0)" fill-opacity="1"></path></g></g><g><g transform="matrix(1,0,0,1,176.46429443359375,37.25)"><path transform="matrix(0.017,0,0,-0.017,0,0)" d="M51 726L32 700C87 636 187 526 187 266C187 -10 83 -131 32 -194L51 -215C104 -165 273 -23 273 265C273 542 108 675 51 726Z" stroke="rgb(0,0,0)" stroke-opacity="1" stroke-width="8" fill="rgb(0,0,0)" fill-opacity="1"></path></g></g></g></g></svg>