<svg xmlns="http://www.w3.org/2000/svg" xmlns:xlink="http://www.w3.org/1999/xlink" width="331.25003814697266" height="87.90178680419922" style="width:331.25003814697266px;height:87.90178680419922px;font-family:Asana-Math, Asana;background:transparent;"><g><g><g><g><g><g><text x="2" y="30.0625" style="white-space:pre;stroke:none;fill:rgb(0,0,0);fill-opacity:1;font-size:15px;font-family:Arial, Helvetica, sans-serif;font-weight:400;font-style:normal;dominant-baseline:text-before-edge;text-decoration:none solid rgb(0, 0, 0);">MAP</text></g></g></g></g><g><g transform="matrix(1,0,0,1,34.50897216796875,43.633941650390625)"><path transform="matrix(0.017,0,0,-0.017,0,0)" d="M401 30C216 30 79 161 79 337C79 513 215 644 397 644C554 644 671 542 671 405C671 290 589 163 514 163C499 163 489 175 489 192C489 201 490 210 493 220L570 499L482 499L464 429C452 484 424 509 376 509C263 509 159 399 159 280C159 201 218 139 292 139C339 139 365 155 415 218C420 164 447 134 491 134C607 134 724 272 724 409C724 569 579 694 393 694C185 694 24 535 24 331C24 134 186 -20 394 -20C487 -20 571 11 640 72C672 99 688 120 719 171L658 171C635 139 562 30 401 30ZM308 166C272 166 248 201 248 254C248 331 310 482 388 482L393 482C424 480 445 451 445 410C445 335 395 166 308 166ZM1117 664L1120 692L1096 692L1006 689C990 689 972 689 929 690L865 692L862 664L909 662C933 661 944 653 944 635C944 621 941 592 935 559L862 125C845 33 844 32 804 28L763 25L759 -3L801 -2C849 -1 872 0 891 0L988 -3L1014 -3L1017 25L968 28C941 30 932 37 932 57C932 63 933 74 934 78L977 340C1127 169 1150 140 1255 -3L1324 0C1360 -1 1366 -2 1392 -3L1392 27L1372 27C1349 27 1329 39 1308 65L1062 367L1354 640C1370 655 1391 665 1408 665L1429 665L1429 692L1406 691C1385 690 1369 689 1361 689C1351 689 1335 690 1314 691L1294 692L1294 663C1294 655 1284 642 1256 614C1212 569 1043 403 979 353L1024 613C1031 651 1038 658 1075 661Z" stroke="rgb(0,0,0)" stroke-opacity="1" stroke-width="8" fill="rgb(0,0,0)" fill-opacity="1"></path></g></g><g><g transform="matrix(1,0,0,1,63.6160888671875,43.633941650390625)"><path transform="matrix(0.017,0,0,-0.017,0,0)" d="M604 347L604 406L65 406L65 347ZM604 134L604 193L65 193L65 134Z" stroke="rgb(0,0,0)" stroke-opacity="1" stroke-width="8" fill="rgb(0,0,0)" fill-opacity="1"></path></g></g><g><g><g><g><g transform="matrix(1,0,0,1,82.2410888671875,31.2410888671875)"><path transform="matrix(0.017,0,0,-0.017,0,0)" d="M418 -3L418 27L366 30C311 33 301 44 301 96L301 700L60 598L67 548L217 614L217 96C217 44 206 33 152 30L96 27L96 -3C250 0 250 0 261 0C292 0 402 -3 418 -3Z" stroke="rgb(0,0,0)" stroke-opacity="1" stroke-width="8" fill="rgb(0,0,0)" fill-opacity="1"></path></g></g></g></g><g><g><g><g transform="matrix(1,0,0,1,81.76788330078125,57.02679443359375)"><path transform="matrix(0.017,0,0,-0.017,0,0)" d="M24 388L31 368L63 389C100 412 103 414 110 414C121 414 128 404 128 389C128 338 87 145 46 2L53 -9C78 -2 101 4 123 8C142 134 163 199 209 268C263 352 338 414 383 414C394 414 400 405 400 390C400 372 397 351 389 319L337 107C328 70 324 47 324 31C324 6 335 -9 354 -9C380 -9 416 12 514 85L504 103L478 86C449 67 427 56 417 56C410 56 404 65 404 76C404 81 405 92 406 96L472 372C479 401 483 429 483 446C483 469 472 482 452 482C410 482 341 444 282 389C244 354 216 320 164 247L202 408C206 426 208 438 208 449C208 470 200 482 185 482C164 482 125 460 52 408Z" stroke="rgb(0,0,0)" stroke-opacity="1" stroke-width="8" fill="rgb(0,0,0)" fill-opacity="1"></path></g></g></g></g><line style="fill:none;stroke-width:1px;stroke:rgb(0, 0, 0);" x1="81.76788330078125" y1="39.52679443359375" x2="91.20538330078125" y2="39.52679443359375"></line></g><g><g><g><g><g transform="matrix(1,0,0,1,103.83038330078125,20.855352783203124)"><path transform="matrix(0.0119,0,0,-0.0119,0,0)" d="M24 388L31 368L63 389C100 412 103 414 110 414C121 414 128 404 128 389C128 338 87 145 46 2L53 -9C78 -2 101 4 123 8C142 134 163 199 209 268C263 352 338 414 383 414C394 414 400 405 400 390C400 372 397 351 389 319L337 107C328 70 324 47 324 31C324 6 335 -9 354 -9C380 -9 416 12 514 85L504 103L478 86C449 67 427 56 417 56C410 56 404 65 404 76C404 81 405 92 406 96L472 372C479 401 483 429 483 446C483 469 472 482 452 482C410 482 341 444 282 389C244 354 216 320 164 247L202 408C206 426 208 438 208 449C208 470 200 482 185 482C164 482 125 460 52 408Z" stroke="rgb(0,0,0)" stroke-opacity="1" stroke-width="8" fill="rgb(0,0,0)" fill-opacity="1"></path></g></g></g></g><g><g><g><g transform="matrix(1,0,0,1,92.90179443359375,63.132147216796874)"><path transform="matrix(0.0119,0,0,-0.0119,0,0)" d="M24 388L31 368L63 389C100 412 103 414 110 414C121 414 128 404 128 389C128 338 87 145 46 2L53 -9C78 -2 101 4 123 8C142 134 163 199 209 268C263 352 338 414 383 414C394 414 400 405 400 390C400 372 397 351 389 319L337 107C328 70 324 47 324 31C324 6 335 -9 354 -9C380 -9 416 12 514 85L504 103L478 86C449 67 427 56 417 56C410 56 404 65 404 76C404 81 405 92 406 96L472 372C479 401 483 429 483 446C483 469 472 482 452 482C410 482 341 444 282 389C244 354 216 320 164 247L202 408C206 426 208 438 208 449C208 470 200 482 185 482C164 482 125 460 52 408ZM1313 8L1313 61L1113 61C1019 61 926 139 913 244L1296 244L1296 297L913 297C925 397 1008 480 1113 480L1313 480L1313 533L1118 533C971 533 859 411 859 271C859 131 971 8 1118 8ZM2198 103L1853 692L1691 692L1686 664L1721 662C1766 660 1800 615 1801 606L1708 102C1696 40 1690 32 1654 28L1623 25L1618 -3L1729 0C1741 0 1742 0 1839 -3L1844 25L1802 28C1762 31 1753 39 1753 72C1753 80 1754 91 1756 102L1836 566L2174 -11L2224 -11L2318 542C2339 655 2341 659 2378 662L2415 664L2418 691L2205 692L2200 664L2247 662C2273 661 2283 654 2283 638C2283 631 2200 116 2198 103Z" stroke="rgb(0,0,0)" stroke-opacity="1" stroke-width="8" fill="rgb(0,0,0)" fill-opacity="1"></path></g></g></g></g><g><g transform="matrix(1,0,0,1,96.294677734375,41.27499618530274)"><path transform="matrix(0.0255,0,0,-0.0255,0,0)" d="M788 13L772 -310L62 -310L420 133L66 620L754 620L768 346L732 346C718 428 694 486 662 522C626 559 572 578 498 578L246 578L524 194L214 -205L512 -205C592 -205 648 -190 680 -162C714 -132 734 -74 746 13Z" stroke="rgb(0,0,0)" stroke-opacity="1" stroke-width="8" fill="rgb(0,0,0)" fill-opacity="1"></path></g></g></g><g><g transform="matrix(1,0,0,1,123.91070556640625,43.633941650390625)"><path transform="matrix(0.017,0,0,-0.017,0,0)" d="M567 55C567 39 552 30 524 28L480 25L480 -3C582 0 582 0 602 0C622 0 622 0 724 -3L724 25L698 28C651 35 650 35 642 80L555 705L509 705L136 112C100 56 82 40 48 32L28 27L28 -3C120 0 120 0 140 0C159 0 161 0 247 -3L247 25L195 28C179 29 164 38 164 47C164 55 171 69 190 102L292 277L538 277L563 89L563 86C563 84 567 69 567 55ZM496 601L533 313L317 313ZM856 664L911 662C935 661 946 653 946 635L863 125C846 34 845 31 805 28L764 25L760 -3L802 -2C843 -1 874 0 892 0C909 0 938 -1 978 -2L1031 -3L1034 25L969 28C943 29 933 37 933 58C933 67 934 74 937 93L1035 648C1071 654 1087 656 1106 656C1208 656 1257 612 1257 519C1257 411 1185 323 1097 323C1075 323 1055 328 1018 342L1020 311C1057 293 1077 288 1106 288C1235 288 1345 405 1345 541C1345 642 1282 695 1163 692L859 692ZM1762 30C1577 30 1440 161 1440 337C1440 513 1576 644 1758 644C1915 644 2032 542 2032 405C2032 290 1950 163 1875 163C1860 163 1850 175 1850 192C1850 201 1851 210 1854 220L1931 499L1843 499L1825 429C1813 484 1785 509 1737 509C1624 509 1520 399 1520 280C1520 201 1579 139 1653 139C1700 139 1726 155 1776 218C1781 164 1808 134 1852 134C1968 134 2085 272 2085 409C2085 569 1940 694 1754 694C1546 694 1385 535 1385 331C1385 134 1547 -20 1755 -20C1848 -20 1932 11 2001 72C2033 99 2049 120 2080 171L2019 171C1996 139 1923 30 1762 30ZM1669 166C1633 166 1609 201 1609 254C1609 331 1671 482 1749 482L1754 482C1785 480 1806 451 1806 410C1806 335 1756 166 1669 166ZM2478 664L2481 692L2457 692L2367 689C2351 689 2333 689 2290 690L2226 692L2223 664L2270 662C2294 661 2305 653 2305 635C2305 621 2302 592 2296 559L2223 125C2206 33 2205 32 2165 28L2124 25L2120 -3L2162 -2C2210 -1 2233 0 2252 0L2349 -3L2375 -3L2378 25L2329 28C2302 30 2293 37 2293 57C2293 63 2294 74 2295 78L2338 340C2488 169 2511 140 2616 -3L2685 0C2721 -1 2727 -2 2753 -3L2753 27L2733 27C2710 27 2690 39 2669 65L2423 367L2715 640C2731 655 2752 665 2769 665L2790 665L2790 692L2767 691C2746 690 2730 689 2722 689C2712 689 2696 690 2675 691L2655 692L2655 663C2655 655 2645 642 2617 614C2573 569 2404 403 2340 353L2385 613C2392 651 2399 658 2436 661Z" stroke="rgb(0,0,0)" stroke-opacity="1" stroke-width="8" fill="rgb(0,0,0)" fill-opacity="1"></path></g></g><g><g><g><g><g transform="matrix(1,0,0,1,171.5625,47.2125)"><path transform="matrix(0.0119,0,0,-0.0119,0,0)" d="M24 388L31 368L63 389C100 412 103 414 110 414C121 414 128 404 128 389C128 338 87 145 46 2L53 -9C78 -2 101 4 123 8C142 134 163 199 209 268C263 352 338 414 383 414C394 414 400 405 400 390C400 372 397 351 389 319L337 107C328 70 324 47 324 31C324 6 335 -9 354 -9C380 -9 416 12 514 85L504 103L478 86C449 67 427 56 417 56C410 56 404 65 404 76C404 81 405 92 406 96L472 372C479 401 483 429 483 446C483 469 472 482 452 482C410 482 341 444 282 389C244 354 216 320 164 247L202 408C206 426 208 438 208 449C208 470 200 482 185 482C164 482 125 460 52 408Z" stroke="rgb(0,0,0)" stroke-opacity="1" stroke-width="8" fill="rgb(0,0,0)" fill-opacity="1"></path></g></g></g></g></g><g><g transform="matrix(1,0,0,1,184.2857666015625,43.633941650390625)"><path transform="matrix(0.017,0,0,-0.017,0,0)" d="M604 347L604 406L65 406L65 347ZM604 134L604 193L65 193L65 134Z" stroke="rgb(0,0,0)" stroke-opacity="1" stroke-width="8" fill="rgb(0,0,0)" fill-opacity="1"></path></g></g><g><g transform="matrix(1,0,0,1,200.7410888671875,43.633941650390625)"><path transform="matrix(0.017,0,0,-0.017,0,0)" d="" stroke="rgb(0,0,0)" stroke-opacity="1" stroke-width="8" fill="rgb(0,0,0)" fill-opacity="1"></path></g></g><g><g><g><g><g transform="matrix(1,0,0,1,209.0357666015625,31.2410888671875)"><path transform="matrix(0.017,0,0,-0.017,0,0)" d="M418 -3L418 27L366 30C311 33 301 44 301 96L301 700L60 598L67 548L217 614L217 96C217 44 206 33 152 30L96 27L96 -3C250 0 250 0 261 0C292 0 402 -3 418 -3Z" stroke="rgb(0,0,0)" stroke-opacity="1" stroke-width="8" fill="rgb(0,0,0)" fill-opacity="1"></path></g></g></g></g><g><g><g><g transform="matrix(1,0,0,1,206.6785888671875,57.02679443359375)"><path transform="matrix(0.017,0,0,-0.017,0,0)" d="M582 103L237 692L75 692L70 664L105 662C150 660 184 615 185 606L92 102C80 40 74 32 38 28L7 25L2 -3L113 0C125 0 126 0 223 -3L228 25L186 28C146 31 137 39 137 72C137 80 138 91 140 102L220 566L558 -11L608 -11L702 542C723 655 725 659 762 662L799 664L802 691L589 692L584 664L631 662C657 661 667 654 667 638C667 631 584 116 582 103Z" stroke="rgb(0,0,0)" stroke-opacity="1" stroke-width="8" fill="rgb(0,0,0)" fill-opacity="1"></path></g></g></g></g><line style="fill:none;stroke-width:1px;stroke:rgb(0, 0, 0);" x1="206.6785888671875" y1="39.52679443359375" x2="219.8928747177124" y2="39.52679443359375"></line></g><g><g><g><g><g transform="matrix(1,0,0,1,232.51788330078125,20.855352783203124)"><path transform="matrix(0.0119,0,0,-0.0119,0,0)" d="M24 388L31 368L63 389C100 412 103 414 110 414C121 414 128 404 128 389C128 338 87 145 46 2L53 -9C78 -2 101 4 123 8C142 134 163 199 209 268C263 352 338 414 383 414C394 414 400 405 400 390C400 372 397 351 389 319L337 107C328 70 324 47 324 31C324 6 335 -9 354 -9C380 -9 416 12 514 85L504 103L478 86C449 67 427 56 417 56C410 56 404 65 404 76C404 81 405 92 406 96L472 372C479 401 483 429 483 446C483 469 472 482 452 482C410 482 341 444 282 389C244 354 216 320 164 247L202 408C206 426 208 438 208 449C208 470 200 482 185 482C164 482 125 460 52 408Z" stroke="rgb(0,0,0)" stroke-opacity="1" stroke-width="8" fill="rgb(0,0,0)" fill-opacity="1"></path></g></g></g></g><g><g><g><g transform="matrix(1,0,0,1,221.58929443359375,63.132147216796874)"><path transform="matrix(0.0119,0,0,-0.0119,0,0)" d="M24 388L31 368L63 389C100 412 103 414 110 414C121 414 128 404 128 389C128 338 87 145 46 2L53 -9C78 -2 101 4 123 8C142 134 163 199 209 268C263 352 338 414 383 414C394 414 400 405 400 390C400 372 397 351 389 319L337 107C328 70 324 47 324 31C324 6 335 -9 354 -9C380 -9 416 12 514 85L504 103L478 86C449 67 427 56 417 56C410 56 404 65 404 76C404 81 405 92 406 96L472 372C479 401 483 429 483 446C483 469 472 482 452 482C410 482 341 444 282 389C244 354 216 320 164 247L202 408C206 426 208 438 208 449C208 470 200 482 185 482C164 482 125 460 52 408ZM1313 8L1313 61L1113 61C1019 61 926 139 913 244L1296 244L1296 297L913 297C925 397 1008 480 1113 480L1313 480L1313 533L1118 533C971 533 859 411 859 271C859 131 971 8 1118 8ZM2198 103L1853 692L1691 692L1686 664L1721 662C1766 660 1800 615 1801 606L1708 102C1696 40 1690 32 1654 28L1623 25L1618 -3L1729 0C1741 0 1742 0 1839 -3L1844 25L1802 28C1762 31 1753 39 1753 72C1753 80 1754 91 1756 102L1836 566L2174 -11L2224 -11L2318 542C2339 655 2341 659 2378 662L2415 664L2418 691L2205 692L2200 664L2247 662C2273 661 2283 654 2283 638C2283 631 2200 116 2198 103Z" stroke="rgb(0,0,0)" stroke-opacity="1" stroke-width="8" fill="rgb(0,0,0)" fill-opacity="1"></path></g></g></g></g><g><g transform="matrix(1,0,0,1,224.982177734375,41.27499618530274)"><path transform="matrix(0.0255,0,0,-0.0255,0,0)" d="M788 13L772 -310L62 -310L420 133L66 620L754 620L768 346L732 346C718 428 694 486 662 522C626 559 572 578 498 578L246 578L524 194L214 -205L512 -205C592 -205 648 -190 680 -162C714 -132 734 -74 746 13Z" stroke="rgb(0,0,0)" stroke-opacity="1" stroke-width="8" fill="rgb(0,0,0)" fill-opacity="1"></path></g></g></g><g><g><g><g><g><g><g><g transform="matrix(1,0,0,1,269.58929443359375,13.9)"><path transform="matrix(0.0119,0,0,-0.0119,0,0)" d="M240 722L228 733C176 707 140 698 68 691L64 670L112 670C136 670 146 663 146 646C146 638 145 629 144 622L96 354C82 279 66 210 14 1L23 -9L90 8L113 132C122 180 146 225 180 259C249 59 281 -9 306 -9C319 -9 343 4 387 35L433 67L425 86L382 62C368 54 361 52 353 52C343 52 336 58 327 75C292 139 270 193 231 316L245 330C306 391 352 416 402 416C410 416 421 414 438 410L455 473C437 479 419 482 407 482C341 482 258 405 133 230Z" stroke="rgb(0,0,0)" stroke-opacity="1" stroke-width="8" fill="rgb(0,0,0)" fill-opacity="1"></path></g></g></g></g><g><g><g><g transform="matrix(1,0,0,1,269.58929443359375,32.8285888671875)"><path transform="matrix(0.0119,0,0,-0.0119,0,0)" d="M240 722L228 733C176 707 140 698 68 691L64 670L112 670C136 670 146 663 146 646C146 638 145 629 144 622L96 354C82 279 66 210 14 1L23 -9L90 8L113 132C122 180 146 225 180 259C249 59 281 -9 306 -9C319 -9 343 4 387 35L433 67L425 86L382 62C368 54 361 52 353 52C343 52 336 58 327 75C292 139 270 193 231 316L245 330C306 391 352 416 402 416C410 416 421 414 438 410L455 473C437 479 419 482 407 482C341 482 258 405 133 230ZM1226 8L1226 61L1026 61C932 61 839 139 826 244L1209 244L1209 297L826 297C838 397 921 480 1026 480L1226 480L1226 533L1031 533C884 533 772 411 772 271C772 131 884 8 1031 8ZM1900 664L1903 692L1879 692L1789 689C1773 689 1755 689 1712 690L1648 692L1645 664L1692 662C1716 661 1727 653 1727 635C1727 621 1724 592 1718 559L1645 125C1628 33 1627 32 1587 28L1546 25L1542 -3L1584 -2C1632 -1 1655 0 1674 0L1771 -3L1797 -3L1800 25L1751 28C1724 30 1715 37 1715 57C1715 63 1716 74 1717 78L1760 340C1910 169 1933 140 2038 -3L2107 0C2143 -1 2149 -2 2175 -3L2175 27L2155 27C2132 27 2112 39 2091 65L1845 367L2137 640C2153 655 2174 665 2191 665L2212 665L2212 692L2189 691C2168 690 2152 689 2144 689C2134 689 2118 690 2097 691L2077 692L2077 663C2077 655 2067 642 2039 614C1995 569 1826 403 1762 353L1807 613C1814 651 1821 658 1858 661Z" stroke="rgb(0,0,0)" stroke-opacity="1" stroke-width="8" fill="rgb(0,0,0)" fill-opacity="1"></path></g></g></g></g><g><g transform="matrix(1,0,0,1,254.294677734375,22.591077423095705)"><path transform="matrix(0.017,0,0,-0.017,0,0)" d="M788 13L772 -310L62 -310L420 133L66 620L754 620L768 346L732 346C718 428 694 486 662 522C626 559 572 578 498 578L246 578L524 194L214 -205L512 -205C592 -205 648 -190 680 -162C714 -132 734 -74 746 13Z" stroke="rgb(0,0,0)" stroke-opacity="1" stroke-width="8" fill="rgb(0,0,0)" fill-opacity="1"></path></g></g></g><g><g transform="matrix(1,0,0,1,298.2410888671875,24.96429443359375)"><path transform="matrix(0.017,0,0,-0.017,0,0)" d="M105 664L160 662C184 661 195 653 195 635L112 125C95 34 94 31 54 28L13 25L9 -3L51 -2C92 -1 123 0 141 0C158 0 187 -1 227 -2L280 -3L283 25L218 28C192 29 182 37 182 58C182 67 183 74 186 93L284 648C320 654 336 656 355 656C457 656 506 612 506 519C506 411 434 323 346 323C324 323 304 328 267 342L269 311C306 293 326 288 355 288C484 288 594 405 594 541C594 642 531 695 412 692L108 692ZM1011 30C826 30 689 161 689 337C689 513 825 644 1007 644C1164 644 1281 542 1281 405C1281 290 1199 163 1124 163C1109 163 1099 175 1099 192C1099 201 1100 210 1103 220L1180 499L1092 499L1074 429C1062 484 1034 509 986 509C873 509 769 399 769 280C769 201 828 139 902 139C949 139 975 155 1025 218C1030 164 1057 134 1101 134C1217 134 1334 272 1334 409C1334 569 1189 694 1003 694C795 694 634 535 634 331C634 134 796 -20 1004 -20C1097 -20 1181 11 1250 72C1282 99 1298 120 1329 171L1268 171C1245 139 1172 30 1011 30ZM918 166C882 166 858 201 858 254C858 331 920 482 998 482L1003 482C1034 480 1055 451 1055 410C1055 335 1005 166 918 166ZM1596 722L1584 733C1532 707 1496 698 1424 691L1420 670L1468 670C1492 670 1502 663 1502 646C1502 638 1501 629 1500 622L1452 354C1438 279 1422 210 1370 1L1379 -9L1446 8L1469 132C1478 180 1502 225 1536 259C1605 59 1637 -9 1662 -9C1675 -9 1699 4 1743 35L1789 67L1781 86L1738 62C1724 54 1717 52 1709 52C1699 52 1692 58 1683 75C1648 139 1626 193 1587 316L1601 330C1662 391 1708 416 1758 416C1766 416 1777 414 1794 410L1811 473C1793 479 1775 482 1763 482C1697 482 1614 405 1489 230Z" stroke="rgb(0,0,0)" stroke-opacity="1" stroke-width="8" fill="rgb(0,0,0)" fill-opacity="1"></path></g></g></g></g><g><g><g><g transform="matrix(1,0,0,1,286.107177734375,57.02679443359375)"><path transform="matrix(0.017,0,0,-0.017,0,0)" d="M371 664L374 692L350 692L260 689C244 689 226 689 183 690L119 692L116 664L163 662C187 661 198 653 198 635C198 621 195 592 189 559L116 125C99 33 98 32 58 28L17 25L13 -3L55 -2C103 -1 126 0 145 0L242 -3L268 -3L271 25L222 28C195 30 186 37 186 57C186 63 187 74 188 78L231 340C381 169 404 140 509 -3L578 0C614 -1 620 -2 646 -3L646 27L626 27C603 27 583 39 562 65L316 367L608 640C624 655 645 665 662 665L683 665L683 692L660 691C639 690 623 689 615 689C605 689 589 690 568 691L548 692L548 663C548 655 538 642 510 614C466 569 297 403 233 353L278 613C285 651 292 658 329 661Z" stroke="rgb(0,0,0)" stroke-opacity="1" stroke-width="8" fill="rgb(0,0,0)" fill-opacity="1"></path></g></g></g></g><line style="fill:none;stroke-width:1px;stroke:rgb(0, 0, 0);" x1="254.294677734375" y1="39.52679443359375" x2="329.25003814697266" y2="39.52679443359375"></line></g></g><g></g></g></svg>